<svg id="hand_recognition" height="512" viewBox="0 0 64 64" width="512" xmlns="http://www.w3.org/2000/svg" data-name="hand recognition"><path d="m50.03 20.562v17.912c0 10.748-7.524 19.018-16.33 19.018-14.266 0-16.558-17.492-25.247-31.681 2.213-1.518 6.2-1.186 8.315 2.766l4.458 7.523a1.472 1.472 0 0 0 2.735-.758c.022-31.522.014-20.65.016-23a2.594 2.594 0 0 1 2.593-2.593 2.621 2.621 0 0 1 2.608 2.608v15.588a2.609 2.609 0 0 0 5.217 0v-18.829a2.6 2.6 0 1 1 5.2 0v19.612a2.609 2.609 0 0 0 5.217 0v-8.182a2.584 2.584 0 0 1 2.593-2.592h.016a2.611 2.611 0 0 1 2.609 2.608z" fill="#4370ff"/><path d="m52.03 38.474v-17.912a4.609 4.609 0 0 0 -9.217-.015v8.181a.608.608 0 1 1 -1.216 0v-19.612a4.6 4.6 0 1 0 -9.2 0v18.829a.609.609 0 0 1 -1.218 0v-15.588a4.6 4.6 0 0 0 -9.2-.017l-.016 21.079-3.43-5.787a8.552 8.552 0 0 0 -5.456-4.444c-4.092-1-6.58 1.691-7.32 2.047 1.043 1.925 1.932 2.331 7.143 13.81 4.783 10.515 9.3 20.447 20.8 20.447 10.107 0 18.33-9.429 18.33-21.018zm-18.33 17.018c-8.928 0-12.557-7.988-17.153-18.1-1.561-3.435-3.165-6.967-5.095-10.413a3.612 3.612 0 0 1 .678.1 4.576 4.576 0 0 1 2.918 2.521l4.458 7.525a3.472 3.472 0 0 0 6.455-1.778l.016-23a.593.593 0 0 1 .592-.593.624.624 0 0 1 .609.608v15.583a4.609 4.609 0 0 0 9.218 0v-18.829a.6.6 0 1 1 1.2 0v19.612a4.608 4.608 0 0 0 9.216 0v-8.181a.591.591 0 0 1 .609-.593.608.608 0 0 1 .608.608v17.912c.001 9.383-6.429 17.018-14.329 17.018z"/><path d="m5 44.846h-4v18.154h18.154v-4h-14.154z"/><path d="m59 59h-14.153v4h18.153v-18.154h-4z"/><path d="m5 5h14.154v-4h-18.154v18.154h4z"/><path d="m44.847 1v4h14.153v14.154h4v-18.154z"/></svg>